<?xml version="1.0" encoding="UTF-8" standalone="no"?>
<!DOCTYPE svg PUBLIC "-//W3C//DTD SVG 1.1//EN"
 "http://www.w3.org/Graphics/SVG/1.1/DTD/svg11.dtd">
<!-- Generated by graphviz version 12.2.1 (0)
 -->
<!-- Pages: 1 -->
<svg width="199pt" height="188pt"
 viewBox="0.00 0.00 199.38 188.00" xmlns="http://www.w3.org/2000/svg" xmlns:xlink="http://www.w3.org/1999/xlink">
<g id="graph0" class="graph" transform="scale(1 1) rotate(0) translate(4 184)">
<polygon fill="white" stroke="none" points="-4,4 -4,-184 195.38,-184 195.38,4 -4,4"/>
<!-- transient -->
<g id="node1" class="node">
<title>transient</title>
<ellipse fill="none" stroke="red" cx="88.59" cy="-162" rx="57" ry="18"/>
<text text-anchor="middle" x="88.59" y="-157.32" font-family="Times,serif" font-size="14.00">transient</text>
</g>
<!-- compat -->
<g id="node2" class="node">
<title>compat</title>
<ellipse fill="none" stroke="red" cx="88.59" cy="-90" rx="48.05" ry="18"/>
<text text-anchor="middle" x="88.59" y="-85.33" font-family="Times,serif" font-size="14.00">compat</text>
</g>
<!-- transient&#45;&gt;compat -->
<g id="edge4" class="edge">
<title>transient&#45;&gt;compat</title>
<path fill="none" stroke="black" d="M88.59,-143.7C88.59,-136.41 88.59,-127.73 88.59,-119.54"/>
<polygon fill="black" stroke="black" points="92.09,-119.62 88.59,-109.62 85.09,-119.62 92.09,-119.62"/>
</g>
<!-- seq -->
<g id="node3" class="node">
<title>seq</title>
<ellipse fill="none" stroke="red" cx="28.59" cy="-18" rx="28.59" ry="18"/>
<text text-anchor="middle" x="28.59" y="-13.32" font-family="Times,serif" font-size="14.00">seq</text>
</g>
<!-- transient&#45;&gt;seq -->
<g id="edge5" class="edge">
<title>transient&#45;&gt;seq</title>
<path fill="none" stroke="black" d="M64.29,-145.42C52.13,-136.16 38.54,-123.25 31.59,-108 23,-89.17 22.57,-65.69 24.12,-47.57"/>
<polygon fill="black" stroke="black" points="27.58,-48.12 25.22,-37.79 20.63,-47.33 27.58,-48.12"/>
</g>
<!-- emacs -->
<g id="node4" class="node">
<title>emacs</title>
<ellipse fill="none" stroke="red" cx="148.59" cy="-18" rx="42.79" ry="18"/>
<text text-anchor="middle" x="148.59" y="-13.32" font-family="Times,serif" font-size="14.00">emacs</text>
</g>
<!-- transient&#45;&gt;emacs -->
<g id="edge3" class="edge">
<title>transient&#45;&gt;emacs</title>
<path fill="none" stroke="black" d="M112.88,-145.42C125.04,-136.16 138.64,-123.25 145.59,-108 154.17,-89.17 154.6,-65.69 153.05,-47.57"/>
<polygon fill="black" stroke="black" points="156.54,-47.33 151.95,-37.79 149.59,-48.12 156.54,-47.33"/>
</g>
<!-- compat&#45;&gt;seq -->
<g id="edge2" class="edge">
<title>compat&#45;&gt;seq</title>
<path fill="none" stroke="black" d="M74.37,-72.41C66.72,-63.5 57.17,-52.35 48.78,-42.56"/>
<polygon fill="black" stroke="black" points="51.63,-40.5 42.46,-35.19 46.31,-45.06 51.63,-40.5"/>
</g>
<!-- compat&#45;&gt;emacs -->
<g id="edge1" class="edge">
<title>compat&#45;&gt;emacs</title>
<path fill="none" stroke="black" d="M102.8,-72.41C110.05,-63.95 119.02,-53.49 127.09,-44.08"/>
<polygon fill="black" stroke="black" points="129.63,-46.49 133.48,-36.62 124.32,-41.93 129.63,-46.49"/>
</g>
</g>
</svg>
